<?xml version="1.0" encoding="UTF-8" standalone="no"?><!DOCTYPE svg PUBLIC "-//W3C//DTD SVG 1.1//EN" "http://www.w3.org/Graphics/SVG/1.1/DTD/svg11.dtd"><svg width="100%" height="100%" viewBox="0 0 1024 1024" version="1.1" xmlns="http://www.w3.org/2000/svg" xmlns:xlink="http://www.w3.org/1999/xlink" xml:space="preserve" xmlns:serif="http://www.serif.com/" style="fill-rule:evenodd;clip-rule:evenodd;stroke-linecap:round;stroke-linejoin:round;stroke-miterlimit:1.5;"><g><g><path d="M1020.78,256.758l-0,510.482c-0,140.871 -114.374,255.238 -255.245,255.238l-510.481,0c-140.872,0 -255.242,-114.367 -255.242,-255.238l0,-510.482c0,-140.871 114.37,-255.241 255.242,-255.241l510.481,0c140.871,0 255.245,114.37 255.245,255.241Z" style="fill:#0d0f28;"/></g><rect x="179.925" y="219.428" width="676.73" height="491.718" style="fill:#ebebeb;"/><rect x="453.981" y="131.374" width="120.703" height="76.182" style="fill:#ebebeb;"/><path d="M242.255,922.872l132.576,-194.907l45.511,2.968l-113.778,194.907l-64.309,-2.968Z" style="fill:#ebebeb;stroke:#000;stroke-width:1px;"/><path d="M754.75,922.872l-145.834,-194.907l-50.062,2.968l125.156,194.907l70.74,-2.968Z" style="fill:#ebebeb;stroke:#000;stroke-width:1px;"/></g></svg>