<svg version="1.1" viewBox="0.0 0.0 960.0 540.0" fill="none" stroke="none" stroke-linecap="square" stroke-miterlimit="10" xmlns:xlink="http://www.w3.org/1999/xlink" xmlns="http://www.w3.org/2000/svg"><clipPath id="g12126a3bec9_0_1.0"><path d="m0 0l960.0 0l0 540.0l-960.0 0l0 -540.0z" clip-rule="nonzero"/></clipPath><g clip-path="url(#g12126a3bec9_0_1.0)"><path fill="#ffffff" d="m0 0l960.0 0l0 540.0l-960.0 0z" fill-rule="evenodd"/><path fill="#2066b8" d="m0 506.70865l960.0 0l0 33.29135l-960.0 0z" fill-rule="evenodd"/><path fill="#000000" fill-opacity="0.0" d="m911.52405 4.2231684l4.220825 -4.220844" fill-rule="evenodd"/><path stroke="#2066b8" stroke-width="2.0" stroke-linejoin="round" stroke-linecap="round" d="m911.52405 4.2231684l4.220825 -4.220844" fill-rule="evenodd"/><path fill="#000000" fill-opacity="0.0" d="m926.89343 0.0023244096l-15.369385 15.369378" fill-rule="evenodd"/><path stroke="#2066b8" stroke-width="2.0" stroke-linejoin="round" stroke-linecap="round" d="m926.89343 0.0023244096l-15.369385 15.369378" fill-rule="evenodd"/><path fill="#000000" fill-opacity="0.0" d="m938.0455 0.0023244096l-26.521423 26.52144" fill-rule="evenodd"/><path stroke="#2066b8" stroke-width="2.0" stroke-linejoin="round" stroke-linecap="round" d="m938.0455 0.0023244096l-26.521423 26.52144" fill-rule="evenodd"/><path fill="#000000" fill-opacity="0.0" d="m949.19403 0.0023244096l-37.669983 37.669975" fill-rule="evenodd"/><path stroke="#2066b8" stroke-width="2.0" stroke-linejoin="round" stroke-linecap="round" d="m949.19403 0.0023244096l-37.669983 37.669975" fill-rule="evenodd"/><path fill="#000000" fill-opacity="0.0" d="m960.01434 0.3975874l-48.09503 48.095036" fill-rule="evenodd"/><path stroke="#2066b8" stroke-width="2.0" stroke-linejoin="round" stroke-linecap="round" d="m960.01434 0.3975874l-48.09503 48.095036" fill-rule="evenodd"/><path fill="#000000" fill-opacity="0.0" d="m960.01434 11.546122l-36.946533 36.946503" fill-rule="evenodd"/><path stroke="#2066b8" stroke-width="2.0" stroke-linejoin="round" stroke-linecap="round" d="m960.01434 11.546122l-36.946533 36.946503" fill-rule="evenodd"/><path fill="#000000" fill-opacity="0.0" d="m960.01434 22.698185l-25.794434 25.794437" fill-rule="evenodd"/><path stroke="#2066b8" stroke-width="2.0" stroke-linejoin="round" stroke-linecap="round" d="m960.01434 22.698185l-25.794434 25.794437" fill-rule="evenodd"/><path fill="#000000" fill-opacity="0.0" d="m960.01434 33.846718l-14.645935 14.645905" fill-rule="evenodd"/><path stroke="#2066b8" stroke-width="2.0" stroke-linejoin="round" stroke-linecap="round" d="m960.01434 33.846718l-14.645935 14.645905" fill-rule="evenodd"/><path fill="#000000" fill-opacity="0.0" d="m960.01434 45.062305l-3.4302979 3.430317" fill-rule="evenodd"/><path stroke="#2066b8" stroke-width="2.0" stroke-linejoin="round" stroke-linecap="round" d="m960.01434 45.062305l-3.4302979 3.430317" fill-rule="evenodd"/><path fill="#000000" fill-opacity="0.0" d="m0.004356693 4.2231684l4.220844 -4.220844" fill-rule="evenodd"/><path stroke="#2066b8" stroke-width="2.0" stroke-linejoin="round" stroke-linecap="round" d="m0.004356693 4.2231684l4.220844 -4.220844" fill-rule="evenodd"/><path fill="#000000" fill-opacity="0.0" d="m15.373734 0.0023244096l-15.369378 15.369378" fill-rule="evenodd"/><path stroke="#2066b8" stroke-width="2.0" stroke-linejoin="round" stroke-linecap="round" d="m15.373734 0.0023244096l-15.369378 15.369378" fill-rule="evenodd"/><path fill="#000000" fill-opacity="0.0" d="m26.525797 0.0023244096l-26.52144 26.52144" fill-rule="evenodd"/><path stroke="#2066b8" stroke-width="2.0" stroke-linejoin="round" stroke-linecap="round" d="m26.525797 0.0023244096l-26.52144 26.52144" fill-rule="evenodd"/><path fill="#000000" fill-opacity="0.0" d="m37.67433 0.0023244096l-37.669975 37.669975" fill-rule="evenodd"/><path stroke="#2066b8" stroke-width="2.0" stroke-linejoin="round" stroke-linecap="round" d="m37.67433 0.0023244096l-37.669975 37.669975" fill-rule="evenodd"/><path fill="#000000" fill-opacity="0.0" d="m48.494656 0.3975874l-48.095036 48.095036" fill-rule="evenodd"/><path stroke="#2066b8" stroke-width="2.0" stroke-linejoin="round" stroke-linecap="round" d="m48.494656 0.3975874l-48.095036 48.095036" fill-rule="evenodd"/><path fill="#000000" fill-opacity="0.0" d="m48.494656 11.546122l-36.946503 36.946503" fill-rule="evenodd"/><path stroke="#2066b8" stroke-width="2.0" stroke-linejoin="round" stroke-linecap="round" d="m48.494656 11.546122l-36.946503 36.946503" fill-rule="evenodd"/><path fill="#000000" fill-opacity="0.0" d="m48.494656 22.698185l-25.79444 25.794437" fill-rule="evenodd"/><path stroke="#2066b8" stroke-width="2.0" stroke-linejoin="round" stroke-linecap="round" d="m48.494656 22.698185l-25.79444 25.794437" fill-rule="evenodd"/><path fill="#000000" fill-opacity="0.0" d="m48.494656 33.846718l-14.645905 14.645905" fill-rule="evenodd"/><path stroke="#2066b8" stroke-width="2.0" stroke-linejoin="round" stroke-linecap="round" d="m48.494656 33.846718l-14.645905 14.645905" fill-rule="evenodd"/><path fill="#000000" fill-opacity="0.0" d="m48.494656 45.062305l-3.430317 3.430317" fill-rule="evenodd"/><path stroke="#2066b8" stroke-width="2.0" stroke-linejoin="round" stroke-linecap="round" d="m48.494656 45.062305l-3.430317 3.430317" fill-rule="evenodd"/><path fill="#000000" fill-opacity="0.0" d="m48.96108 502.79056l-3.8128662 3.8062744" fill-rule="evenodd"/><path stroke="#2066b8" stroke-width="2.0" stroke-linejoin="round" stroke-linecap="round" d="m48.96108 502.79056l-3.8128662 3.8062744" fill-rule="evenodd"/><path fill="#000000" fill-opacity="0.0" d="m36.2047 506.59683l12.756378 -12.794434" fill-rule="evenodd"/><path stroke="#2066b8" stroke-width="2.0" stroke-linejoin="round" stroke-linecap="round" d="m36.2047 506.59683l12.756378 -12.794434" fill-rule="evenodd"/><path fill="#000000" fill-opacity="0.0" d="m27.200983 506.59683l21.760096 -21.722504" fill-rule="evenodd"/><path stroke="#2066b8" stroke-width="2.0" stroke-linejoin="round" stroke-linecap="round" d="m27.200983 506.59683l21.760096 -21.722504" fill-rule="evenodd"/><path fill="#000000" fill-opacity="0.0" d="m18.260815 506.59683l30.700264 -30.710693" fill-rule="evenodd"/><path stroke="#2066b8" stroke-width="2.0" stroke-linejoin="round" stroke-linecap="round" d="m18.260815 506.59683l30.700264 -30.710693" fill-rule="evenodd"/><path fill="#000000" fill-opacity="0.0" d="m9.2571 506.59683l39.70398 -39.698853" fill-rule="evenodd"/><path stroke="#2066b8" stroke-width="2.0" stroke-linejoin="round" stroke-linecap="round" d="m9.2571 506.59683l39.70398 -39.698853" fill-rule="evenodd"/><path fill="#000000" fill-opacity="0.0" d="m0.2533845 506.59683l48.707695 -48.623596" fill-rule="evenodd"/><path stroke="#2066b8" stroke-width="2.0" stroke-linejoin="round" stroke-linecap="round" d="m0.2533845 506.59683l48.707695 -48.623596" fill-rule="evenodd"/><path fill="#000000" fill-opacity="0.0" d="m0.0025380577 497.8591l48.95854 -48.874023" fill-rule="evenodd"/><path stroke="#2066b8" stroke-width="2.0" stroke-linejoin="round" stroke-linecap="round" d="m0.0025380577 497.8591l48.95854 -48.874023" fill-rule="evenodd"/><path fill="#000000" fill-opacity="0.0" d="m0.0025380577 488.93436l48.95854 -48.93744" fill-rule="evenodd"/><path stroke="#2066b8" stroke-width="2.0" stroke-linejoin="round" stroke-linecap="round" d="m0.0025380577 488.93436l48.95854 -48.93744" fill-rule="evenodd"/><path fill="#000000" fill-opacity="0.0" d="m0.0025380577 479.94284l48.95854 -48.870667" fill-rule="evenodd"/><path stroke="#2066b8" stroke-width="2.0" stroke-linejoin="round" stroke-linecap="round" d="m0.0025380577 479.94284l48.95854 -48.870667" fill-rule="evenodd"/><path fill="#000000" fill-opacity="0.0" d="m0.0025380577 471.01813l48.95854 -48.93747" fill-rule="evenodd"/><path stroke="#2066b8" stroke-width="2.0" stroke-linejoin="round" stroke-linecap="round" d="m0.0025380577 471.01813l48.95854 -48.93747" fill-rule="evenodd"/><path fill="#000000" fill-opacity="0.0" d="m0.0025380577 462.02994l48.95854 -48.874023" fill-rule="evenodd"/><path stroke="#2066b8" stroke-width="2.0" stroke-linejoin="round" stroke-linecap="round" d="m0.0025380577 462.02994l48.95854 -48.874023" fill-rule="evenodd"/><path fill="#000000" fill-opacity="0.0" d="m0.0025380577 453.04178l48.95854 -48.874023" fill-rule="evenodd"/><path stroke="#2066b8" stroke-width="2.0" stroke-linejoin="round" stroke-linecap="round" d="m0.0025380577 453.04178l48.95854 -48.874023" fill-rule="evenodd"/><path fill="#000000" fill-opacity="0.0" d="m0.0025380577 444.11703l48.95854 -48.93744" fill-rule="evenodd"/><path stroke="#2066b8" stroke-width="2.0" stroke-linejoin="round" stroke-linecap="round" d="m0.0025380577 444.11703l48.95854 -48.93744" fill-rule="evenodd"/><path fill="#000000" fill-opacity="0.0" d="m0.0025380577 435.12888l41.20571 -41.134583" fill-rule="evenodd"/><path stroke="#2066b8" stroke-width="2.0" stroke-linejoin="round" stroke-linecap="round" d="m0.0025380577 435.12888l41.20571 -41.134583" fill-rule="evenodd"/><path fill="#000000" fill-opacity="0.0" d="m0.0025380577 426.2008l32.201996 -32.206512" fill-rule="evenodd"/><path stroke="#2066b8" stroke-width="2.0" stroke-linejoin="round" stroke-linecap="round" d="m0.0025380577 426.2008l32.201996 -32.206512" fill-rule="evenodd"/><path fill="#000000" fill-opacity="0.0" d="m0.0025380577 417.21262l23.261827 -23.218323" fill-rule="evenodd"/><path stroke="#2066b8" stroke-width="2.0" stroke-linejoin="round" stroke-linecap="round" d="m0.0025380577 417.21262l23.261827 -23.218323" fill-rule="evenodd"/><path fill="#000000" fill-opacity="0.0" d="m0.0025380577 408.22446l14.254768 -14.230164" fill-rule="evenodd"/><path stroke="#2066b8" stroke-width="2.0" stroke-linejoin="round" stroke-linecap="round" d="m0.0025380577 408.22446l14.254768 -14.230164" fill-rule="evenodd"/><path fill="#000000" fill-opacity="0.0" d="m0.0025380577 399.2997l5.2510524 -5.30542" fill-rule="evenodd"/><path stroke="#2066b8" stroke-width="2.0" stroke-linejoin="round" stroke-linecap="round" d="m0.0025380577 399.2997l5.2510524 -5.30542" fill-rule="evenodd"/><path fill="#000000" d="m18.853003 165.36475l0.1269455 0.36904907l0.24721146 0.3690338l0.253891 0.36904907l0.37415695 0.24382019l0.24720955 0.12521362l0.50110245 0.12521362l0.37415695 0.118621826l0.50110245 -0.118621826l0.37415695 -0.12521362l0.37415504 -0.12521362l0.24721146 -0.24382019l0.253891 -0.36904907l0.24721146 -0.3690338l0.1269455 -0.36904907l0 -0.8632965l-0.1269455 -0.3690338l-0.24721146 -0.36904907l-0.253891 -0.3690338l-0.24721146 -0.25042725l-0.37415504 -0.118621826l-0.37415695 -0.12521362l-0.50110245 -0.12519836l-0.37415695 0.12519836l-0.50110245 0.12521362l-0.24720955 0.118621826l-0.37415695 0.25042725l-0.253891 0.3690338l-0.24721146 0.36904907l-0.1269455 0.3690338z" fill-rule="evenodd"/><path fill="#000000" d="m18.853003 147.62439l0.1269455 0.36904907l0.24721146 0.3690338l0.253891 0.36904907l0.37415695 0.24383545l0.24720955 0.12519836l0.50110245 0.12521362l0.37415695 0.118621826l0.50110245 -0.118621826l0.37415695 -0.12521362l0.37415504 -0.12519836l0.24721146 -0.24383545l0.253891 -0.36904907l0.24721146 -0.3690338l0.1269455 -0.36904907l0 -0.86328125l-0.1269455 -0.36904907l-0.24721146 -0.3690338l-0.253891 -0.36904907l-0.24721146 -0.250412l-0.37415504 -0.118621826l-0.37415695 -0.12521362l-0.50110245 -0.12521362l-0.37415695 0.12521362l-0.50110245 0.12521362l-0.24720955 0.118621826l-0.37415695 0.250412l-0.253891 0.36904907l-0.24721146 0.3690338l-0.1269455 0.36904907z" fill-rule="evenodd"/><path fill="#000000" d="m18.853003 129.88405l0.1269455 0.3690338l0.24721146 0.36904907l0.253891 0.24383545l0.37415695 0.250412l0.24720955 0.24383545l0.50110245 0.12521362l0.37415695 0l0.50110245 0l0.37415695 -0.12521362l0.37415504 -0.24383545l0.24721146 -0.250412l0.253891 -0.24383545l0.24721146 -0.36904907l0.1269455 -0.3690338l0 -0.8632965l-0.1269455 -0.3690338l-0.24721146 -0.36904907l-0.253891 -0.36904144l-0.24721146 -0.25041962l-0.37415504 -0.24383545l-0.37415695 -0.125206l-0.50110245 0l-0.37415695 0l-0.50110245 0.125206l-0.24720955 0.24383545l-0.37415695 0.25041962l-0.253891 0.36904144l-0.24721146 0.36904907l-0.1269455 0.3690338z" fill-rule="evenodd"/><path fill="#000000" d="m18.853003 112.14369l0.1269455 0.36904144l0.24721146 0.36904144l0.253891 0.24383545l0.37415695 0.25041962l0.24720955 0.24382782l0.50110245 0.12521362l0.37415695 0l0.50110245 0l0.37415695 -0.12521362l0.37415504 -0.24382782l0.24721146 -0.25041962l0.253891 -0.24383545l0.24721146 -0.36904144l0.1269455 -0.36904144l0 -0.8632889l-0.1269455 -0.49425507l-0.24721146 -0.24382782l-0.253891 -0.36904144l-0.24721146 -0.25041962l-0.37415504 -0.24383545l-0.37415695 -0.125206l-0.50110245 0l-0.37415695 0l-0.50110245 0.125206l-0.24720955 0.24383545l-0.37415695 0.25041962l-0.253891 0.36904144l-0.24721146 0.24382782l-0.1269455 0.49425507z" fill-rule="evenodd"/><path fill="#000000" d="m18.853003 94.27814l0.1269455 0.49424744l0.24721146 0.36904144l0.253891 0.24383545l0.37415695 0.25041962l0.24720955 0.24382782l0.50110245 0.12521362l0.37415695 0l0.50110245 0l0.37415695 -0.12521362l0.37415504 -0.24382782l0.24721146 -0.25041962l0.253891 -0.24383545l0.24721146 -0.36904144l0.1269455 -0.49424744l0 -0.7380829l-0.1269455 -0.49425507l-0.24721146 -0.36904144l-0.253891 -0.25041962l-0.24721146 -0.24383545l-0.37415504 -0.24382782l-0.37415695 -0.12521362l-0.50110245 0l-0.37415695 0l-0.50110245 0.12521362l-0.24720955 0.24382782l-0.37415695 0.24383545l-0.253891 0.25041962l-0.24721146 0.36904144l-0.1269455 0.49425507z" fill-rule="evenodd"/><path fill="#000000" d="m18.853003 76.53778l0.1269455 0.49425507l0.24721146 0.24382782l0.253891 0.36904144l0.37415695 0.25042725l0.24720955 0.24382782l0.50110245 0.12521362l0.37415695 0l0.50110245 0l0.37415695 -0.12521362l0.37415504 -0.24382782l0.24721146 -0.25042725l0.253891 -0.36904144l0.24721146 -0.24382782l0.1269455 -0.49425507l0 -0.8632889l-0.1269455 -0.36904144l-0.24721146 -0.36904144l-0.253891 -0.25041962l-0.24721146 -0.24383545l-0.37415504 -0.24382782l-0.37415695 -0.12521362l-0.50110245 0l-0.37415695 0l-0.50110245 0.12521362l-0.24720955 0.24382782l-0.37415695 0.24383545l-0.253891 0.25041962l-0.24721146 0.36904144l-0.1269455 0.36904144z" fill-rule="evenodd"/><path fill="#000000" d="m32.716835 164.99571l0.1269455 0.3690338l0.1269455 0.36904907l0.12026596 0.3690338l0.253891 0.36904907l0.37415695 0.24382019l0.37415695 0.12521362l0.37415695 0.12521362l0.37415314 0.118621826l0.50110245 -0.118621826l0.37415695 -0.12521362l0.37415695 -0.12521362l0.37415695 -0.24382019l0.24721146 -0.36904907l0.1269455 -0.3690338l0.1269455 -0.36904907l0.12026596 -0.3690338l-0.12026596 -0.4942627l-0.1269455 -0.3690338l-0.1269455 -0.36904907l-0.24721146 -0.3690338l-0.37415695 -0.25042725l-0.37415695 -0.118621826l-0.37415695 -0.12521362l-0.50110245 -0.12519836l-0.37415314 0.12519836l-0.37415695 0.12521362l-0.37415695 0.118621826l-0.37415695 0.25042725l-0.253891 0.3690338l-0.12026596 0.36904907l-0.1269455 0.3690338l-0.1269455 0.4942627z" fill-rule="evenodd"/><path fill="#000000" d="m32.716835 147.13014l0.1269455 0.49424744l0.1269455 0.36904907l0.12026596 0.3690338l0.253891 0.36904907l0.37415695 0.24383545l0.37415695 0.12519836l0.37415695 0.12521362l0.37415314 0.118621826l0.50110245 -0.118621826l0.37415695 -0.12521362l0.37415695 -0.12519836l0.37415695 -0.24383545l0.24721146 -0.36904907l0.1269455 -0.3690338l0.1269455 -0.36904907l0.12026596 -0.49424744l-0.12026596 -0.3690338l-0.1269455 -0.36904907l-0.1269455 -0.3690338l-0.24721146 -0.36904907l-0.37415695 -0.250412l-0.37415695 -0.118621826l-0.37415695 -0.12521362l-0.50110245 -0.12521362l-0.37415314 0.12521362l-0.37415695 0.12521362l-0.37415695 0.118621826l-0.37415695 0.250412l-0.253891 0.36904907l-0.12026596 0.3690338l-0.1269455 0.36904907l-0.1269455 0.3690338z" fill-rule="evenodd"/><path fill="#000000" d="m32.716835 129.3898l0.1269455 0.49424744l0.1269455 0.3690338l0.12026596 0.36904907l0.253891 0.24383545l0.37415695 0.250412l0.37415695 0.24383545l0.37415695 0.12521362l0.37415314 0l0.50110245 0l0.37415695 -0.12521362l0.37415695 -0.24383545l0.37415695 -0.250412l0.24721146 -0.24383545l0.1269455 -0.36904907l0.1269455 -0.3690338l0.12026596 -0.49424744l-0.12026596 -0.36904907l-0.1269455 -0.3690338l-0.1269455 -0.36904907l-0.24721146 -0.36904144l-0.37415695 -0.25041962l-0.37415695 -0.24383545l-0.37415695 -0.125206l-0.50110245 0l-0.37415314 0l-0.37415695 0.125206l-0.37415695 0.24383545l-0.37415695 0.25041962l-0.253891 0.36904144l-0.12026596 0.36904907l-0.1269455 0.3690338l-0.1269455 0.36904907z" fill-rule="evenodd"/><path fill="#000000" d="m32.716835 111.649445l0.1269455 0.49424744l0.1269455 0.36904144l0.12026596 0.36904144l0.253891 0.24383545l0.37415695 0.25041962l0.37415695 0.24382782l0.37415695 0.12521362l0.37415314 0l0.50110245 0l0.37415695 -0.12521362l0.37415695 -0.24382782l0.37415695 -0.25041962l0.24721146 -0.24383545l0.1269455 -0.36904144l0.1269455 -0.36904144l0.12026596 -0.49424744l-0.12026596 -0.36904144l-0.1269455 -0.49425507l-0.1269455 -0.24382782l-0.24721146 -0.36904144l-0.37415695 -0.25041962l-0.37415695 -0.24383545l-0.37415695 -0.125206l-0.50110245 0l-0.37415314 0l-0.37415695 0.125206l-0.37415695 0.24383545l-0.37415695 0.25041962l-0.253891 0.36904144l-0.12026596 0.24382782l-0.1269455 0.49425507l-0.1269455 0.36904144z" fill-rule="evenodd"/><path fill="#000000" d="m32.716835 93.909096l0.1269455 0.36904144l0.1269455 0.49424744l0.12026596 0.36904144l0.253891 0.24383545l0.37415695 0.25041962l0.37415695 0.24382782l0.37415695 0.12521362l0.37415314 0l0.50110245 0l0.37415695 -0.12521362l0.37415695 -0.24382782l0.37415695 -0.25041962l0.24721146 -0.24383545l0.1269455 -0.36904144l0.1269455 -0.49424744l0.12026596 -0.36904144l-0.12026596 -0.36904144l-0.1269455 -0.49425507l-0.1269455 -0.36904144l-0.24721146 -0.25041962l-0.37415695 -0.24383545l-0.37415695 -0.24382782l-0.37415695 -0.12521362l-0.50110245 0l-0.37415314 0l-0.37415695 0.12521362l-0.37415695 0.24382782l-0.37415695 0.24383545l-0.253891 0.25041962l-0.12026596 0.36904144l-0.1269455 0.49425507l-0.1269455 0.36904144z" fill-rule="evenodd"/><path fill="#000000" d="m32.716835 76.16874l0.1269455 0.36904144l0.1269455 0.49425507l0.12026596 0.24382782l0.253891 0.36904144l0.37415695 0.25042725l0.37415695 0.24382782l0.37415695 0.12521362l0.37415314 0l0.50110245 0l0.37415695 -0.12521362l0.37415695 -0.24382782l0.37415695 -0.25042725l0.24721146 -0.36904144l0.1269455 -0.24382782l0.1269455 -0.49425507l0.12026596 -0.36904144l-0.12026596 -0.49424744l-0.1269455 -0.36904144l-0.1269455 -0.36904144l-0.24721146 -0.25041962l-0.37415695 -0.24383545l-0.37415695 -0.24382782l-0.37415695 -0.12521362l-0.50110245 0l-0.37415314 0l-0.37415695 0.12521362l-0.37415695 0.24382782l-0.37415695 0.24383545l-0.253891 0.25041962l-0.12026596 0.36904144l-0.1269455 0.36904144l-0.1269455 0.49424744z" fill-rule="evenodd"/><path fill="#000000" d="m913.09235 491.80026l0.13018799 0.38375854l0.25354004 0.38372803l0.26037598 0.38375854l0.38372803 0.25354004l0.25354004 0.13018799l0.513916 0.13018799l0.38372803 0.12335205l0.513916 -0.12335205l0.38372803 -0.13018799l0.38372803 -0.13018799l0.25354004 -0.25354004l0.26037598 -0.38375854l0.25354004 -0.38372803l0.13018799 -0.38375854l0 -0.89767456l-0.13018799 -0.38372803l-0.25354004 -0.38372803l-0.26037598 -0.38375854l-0.25354004 -0.26037598l-0.38372803 -0.12335205l-0.38372803 -0.13018799l-0.513916 -0.1302185l-0.38372803 0.1302185l-0.513916 0.13018799l-0.25354004 0.12335205l-0.38372803 0.26037598l-0.26037598 0.38375854l-0.25354004 0.38372803l-0.13018799 0.38372803z" fill-rule="evenodd"/><path fill="#000000" d="m913.09235 473.35336l0.13018799 0.38372803l0.25354004 0.38375854l0.26037598 0.38372803l0.38372803 0.25354004l0.25354004 0.1302185l0.513916 0.13018799l0.38372803 0.12335205l0.513916 -0.12335205l0.38372803 -0.13018799l0.38372803 -0.1302185l0.25354004 -0.25354004l0.26037598 -0.38372803l0.25354004 -0.38375854l0.13018799 -0.38372803l0 -0.89767456l-0.13018799 -0.38372803l-0.25354004 -0.38375854l-0.26037598 -0.38372803l-0.25354004 -0.2604065l-0.38372803 -0.12335205l-0.38372803 -0.13018799l-0.513916 -0.13018799l-0.38372803 0.13018799l-0.513916 0.13018799l-0.25354004 0.12335205l-0.38372803 0.2604065l-0.26037598 0.38372803l-0.25354004 0.38375854l-0.13018799 0.38372803z" fill-rule="evenodd"/><path fill="#000000" d="m913.09235 454.90646l0.13018799 0.38372803l0.25354004 0.38372803l0.26037598 0.25354004l0.38372803 0.2604065l0.25354004 0.25354004l0.513916 0.13018799l0.38372803 0l0.513916 0l0.38372803 -0.13018799l0.38372803 -0.25354004l0.25354004 -0.2604065l0.26037598 -0.25354004l0.25354004 -0.38372803l0.13018799 -0.38372803l0 -0.89767456l-0.13018799 -0.38375854l-0.25354004 -0.38372803l-0.26037598 -0.38375854l-0.25354004 -0.26037598l-0.38372803 -0.25354004l-0.38372803 -0.1302185l-0.513916 0l-0.38372803 0l-0.513916 0.1302185l-0.25354004 0.25354004l-0.38372803 0.26037598l-0.26037598 0.38375854l-0.25354004 0.38372803l-0.13018799 0.38375854z" fill-rule="evenodd"/><path fill="#000000" d="m913.09235 436.45953l0.13018799 0.38375854l0.25354004 0.38372803l0.26037598 0.25354004l0.38372803 0.2604065l0.25354004 0.25354004l0.513916 0.13018799l0.38372803 0l0.513916 0l0.38372803 -0.13018799l0.38372803 -0.25354004l0.25354004 -0.2604065l0.26037598 -0.25354004l0.25354004 -0.38372803l0.13018799 -0.38375854l0 -0.89767456l-0.13018799 -0.51394653l-0.25354004 -0.25354004l-0.26037598 -0.38372803l-0.25354004 -0.2604065l-0.38372803 -0.25354004l-0.38372803 -0.13018799l-0.513916 0l-0.38372803 0l-0.513916 0.13018799l-0.25354004 0.25354004l-0.38372803 0.2604065l-0.26037598 0.38372803l-0.25354004 0.25354004l-0.13018799 0.51394653z" fill-rule="evenodd"/><path fill="#000000" d="m913.09235 417.88242l0.13018799 0.51394653l0.25354004 0.38375854l0.26037598 0.25354004l0.38372803 0.26037598l0.25354004 0.25354004l0.513916 0.1302185l0.38372803 0l0.513916 0l0.38372803 -0.1302185l0.38372803 -0.25354004l0.25354004 -0.26037598l0.26037598 -0.25354004l0.25354004 -0.38375854l0.13018799 -0.51394653l0 -0.76745605l-0.13018799 -0.51394653l-0.25354004 -0.38372803l-0.26037598 -0.2604065l-0.25354004 -0.25354004l-0.38372803 -0.25354004l-0.38372803 -0.13018799l-0.513916 0l-0.38372803 0l-0.513916 0.13018799l-0.25354004 0.25354004l-0.38372803 0.25354004l-0.26037598 0.2604065l-0.25354004 0.38372803l-0.13018799 0.51394653z" fill-rule="evenodd"/><path fill="#000000" d="m913.09235 399.43552l0.13018799 0.51394653l0.25354004 0.25354004l0.26037598 0.38372803l0.38372803 0.2604065l0.25354004 0.25354004l0.513916 0.13018799l0.38372803 0l0.513916 0l0.38372803 -0.13018799l0.38372803 -0.25354004l0.25354004 -0.2604065l0.26037598 -0.38372803l0.25354004 -0.25354004l0.13018799 -0.51394653l0 -0.89767456l-0.13018799 -0.38372803l-0.25354004 -0.38375854l-0.26037598 -0.26037598l-0.25354004 -0.25354004l-0.38372803 -0.25357056l-0.38372803 -0.13018799l-0.513916 0l-0.38372803 0l-0.513916 0.13018799l-0.25354004 0.25357056l-0.38372803 0.25354004l-0.26037598 0.26037598l-0.25354004 0.38375854l-0.13018799 0.38372803z" fill-rule="evenodd"/><path fill="#000000" d="m927.3107 491.41653l0.13018799 0.38372803l0.13018799 0.38375854l0.12335205 0.38372803l0.26037598 0.38375854l0.38372803 0.25354004l0.38372803 0.13018799l0.38372803 0.13018799l0.38372803 0.12335205l0.513916 -0.12335205l0.38372803 -0.13018799l0.38372803 -0.13018799l0.38372803 -0.25354004l0.253479 -0.38375854l0.13024902 -0.38372803l0.13018799 -0.38375854l0.123291016 -0.38372803l-0.123291016 -0.51394653l-0.13018799 -0.38372803l-0.13024902 -0.38372803l-0.253479 -0.38375854l-0.38372803 -0.26037598l-0.38372803 -0.12335205l-0.38372803 -0.13018799l-0.513916 -0.1302185l-0.38372803 0.1302185l-0.38372803 0.13018799l-0.38372803 0.12335205l-0.38372803 0.26037598l-0.26037598 0.38375854l-0.12335205 0.38372803l-0.13018799 0.38372803l-0.13018799 0.51394653z" fill-rule="evenodd"/><path fill="#000000" d="m927.3107 472.83942l0.13018799 0.51394653l0.13018799 0.38372803l0.12335205 0.38375854l0.26037598 0.38372803l0.38372803 0.25354004l0.38372803 0.1302185l0.38372803 0.13018799l0.38372803 0.12335205l0.513916 -0.12335205l0.38372803 -0.13018799l0.38372803 -0.1302185l0.38372803 -0.25354004l0.253479 -0.38372803l0.13024902 -0.38375854l0.13018799 -0.38372803l0.123291016 -0.51394653l-0.123291016 -0.38372803l-0.13018799 -0.38372803l-0.13024902 -0.38375854l-0.253479 -0.38372803l-0.38372803 -0.2604065l-0.38372803 -0.12335205l-0.38372803 -0.13018799l-0.513916 -0.13018799l-0.38372803 0.13018799l-0.38372803 0.13018799l-0.38372803 0.12335205l-0.38372803 0.2604065l-0.26037598 0.38372803l-0.12335205 0.38375854l-0.13018799 0.38372803l-0.13018799 0.38372803z" fill-rule="evenodd"/><path fill="#000000" d="m927.3107 454.39252l0.13018799 0.51394653l0.13018799 0.38372803l0.12335205 0.38372803l0.26037598 0.25354004l0.38372803 0.2604065l0.38372803 0.25354004l0.38372803 0.13018799l0.38372803 0l0.513916 0l0.38372803 -0.13018799l0.38372803 -0.25354004l0.38372803 -0.2604065l0.253479 -0.25354004l0.13024902 -0.38372803l0.13018799 -0.38372803l0.123291016 -0.51394653l-0.123291016 -0.38372803l-0.13018799 -0.38375854l-0.13024902 -0.38372803l-0.253479 -0.38375854l-0.38372803 -0.26037598l-0.38372803 -0.25354004l-0.38372803 -0.1302185l-0.513916 0l-0.38372803 0l-0.38372803 0.1302185l-0.38372803 0.25354004l-0.38372803 0.26037598l-0.26037598 0.38375854l-0.12335205 0.38372803l-0.13018799 0.38375854l-0.13018799 0.38372803z" fill-rule="evenodd"/><path fill="#000000" d="m927.3107 435.94562l0.13018799 0.513916l0.13018799 0.38375854l0.12335205 0.38372803l0.26037598 0.25354004l0.38372803 0.2604065l0.38372803 0.25354004l0.38372803 0.13018799l0.38372803 0l0.513916 0l0.38372803 -0.13018799l0.38372803 -0.25354004l0.38372803 -0.2604065l0.253479 -0.25354004l0.13024902 -0.38372803l0.13018799 -0.38375854l0.123291016 -0.513916l-0.123291016 -0.38375854l-0.13018799 -0.51394653l-0.13024902 -0.25354004l-0.253479 -0.38372803l-0.38372803 -0.2604065l-0.38372803 -0.25354004l-0.38372803 -0.13018799l-0.513916 0l-0.38372803 0l-0.38372803 0.13018799l-0.38372803 0.25354004l-0.38372803 0.2604065l-0.26037598 0.38372803l-0.12335205 0.25354004l-0.13018799 0.51394653l-0.13018799 0.38375854z" fill-rule="evenodd"/><path fill="#000000" d="m927.3107 417.4987l0.13018799 0.38372803l0.13018799 0.51394653l0.12335205 0.38375854l0.26037598 0.25354004l0.38372803 0.26037598l0.38372803 0.25354004l0.38372803 0.1302185l0.38372803 0l0.513916 0l0.38372803 -0.1302185l0.38372803 -0.25354004l0.38372803 -0.26037598l0.253479 -0.25354004l0.13024902 -0.38375854l0.13018799 -0.51394653l0.123291016 -0.38372803l-0.123291016 -0.38372803l-0.13018799 -0.51394653l-0.13024902 -0.38372803l-0.253479 -0.2604065l-0.38372803 -0.25354004l-0.38372803 -0.25354004l-0.38372803 -0.13018799l-0.513916 0l-0.38372803 0l-0.38372803 0.13018799l-0.38372803 0.25354004l-0.38372803 0.25354004l-0.26037598 0.2604065l-0.12335205 0.38372803l-0.13018799 0.51394653l-0.13018799 0.38372803z" fill-rule="evenodd"/><path fill="#000000" d="m927.3107 399.0518l0.13018799 0.38372803l0.13018799 0.51394653l0.12335205 0.25354004l0.26037598 0.38372803l0.38372803 0.2604065l0.38372803 0.25354004l0.38372803 0.13018799l0.38372803 0l0.513916 0l0.38372803 -0.13018799l0.38372803 -0.25354004l0.38372803 -0.2604065l0.253479 -0.38372803l0.13024902 -0.25354004l0.13018799 -0.51394653l0.123291016 -0.38372803l-0.123291016 -0.51394653l-0.13018799 -0.38372803l-0.13024902 -0.38375854l-0.253479 -0.26037598l-0.38372803 -0.25354004l-0.38372803 -0.25357056l-0.38372803 -0.13018799l-0.513916 0l-0.38372803 0l-0.38372803 0.13018799l-0.38372803 0.25357056l-0.38372803 0.25354004l-0.26037598 0.26037598l-0.12335205 0.38375854l-0.13018799 0.38372803l-0.13018799 0.51394653z" fill-rule="evenodd"/></g></svg>