<svg version="1.1" viewBox="0.0 0.0 960.0 540.0" fill="none" stroke="none" stroke-linecap="square" stroke-miterlimit="10" xmlns:xlink="http://www.w3.org/1999/xlink" xmlns="http://www.w3.org/2000/svg"><clipPath id="g2fd4d19a577_0_2.0"><path d="m0 0l960.0 0l0 540.0l-960.0 0l0 -540.0z" clip-rule="nonzero"/></clipPath><g clip-path="url(#g2fd4d19a577_0_2.0)"><path fill="#ffffff" d="m0 0l960.0 0l0 540.0l-960.0 0z" fill-rule="evenodd"/><path fill="#000000" fill-opacity="0.0" d="m824.9097 -4.9553806E-4l63.565857 63.565804" fill-rule="evenodd"/><path stroke="#2066b8" stroke-width="2.0" stroke-linejoin="round" stroke-linecap="round" d="m824.9097 -4.9553806E-4l63.565857 63.565804" fill-rule="evenodd"/><path fill="#000000" fill-opacity="0.0" d="m836.51733 -4.9553806E-4l63.648315 63.565804" fill-rule="evenodd"/><path stroke="#2066b8" stroke-width="2.0" stroke-linejoin="round" stroke-linecap="round" d="m836.51733 -4.9553806E-4l63.648315 63.565804" fill-rule="evenodd"/><path fill="#000000" fill-opacity="0.0" d="m848.21173 -4.9553806E-4l63.561462 63.565804" fill-rule="evenodd"/><path stroke="#2066b8" stroke-width="2.0" stroke-linejoin="round" stroke-linecap="round" d="m848.21173 -4.9553806E-4l63.561462 63.565804" fill-rule="evenodd"/><path fill="#000000" fill-opacity="0.0" d="m859.8193 -4.9553806E-4l63.648315 63.565804" fill-rule="evenodd"/><path stroke="#2066b8" stroke-width="2.0" stroke-linejoin="round" stroke-linecap="round" d="m859.8193 -4.9553806E-4l63.648315 63.565804" fill-rule="evenodd"/><path fill="#000000" fill-opacity="0.0" d="m871.50934 -4.9553806E-4l63.565796 63.565804" fill-rule="evenodd"/><path stroke="#2066b8" stroke-width="2.0" stroke-linejoin="round" stroke-linecap="round" d="m871.50934 -4.9553806E-4l63.565796 63.565804" fill-rule="evenodd"/><path fill="#000000" fill-opacity="0.0" d="m883.1994 -4.9553806E-4l63.565796 63.565804" fill-rule="evenodd"/><path stroke="#2066b8" stroke-width="2.0" stroke-linejoin="round" stroke-linecap="round" d="m883.1994 -4.9553806E-4l63.565796 63.565804" fill-rule="evenodd"/><path fill="#000000" fill-opacity="0.0" d="m894.80695 -4.9553806E-4l63.648315 63.565804" fill-rule="evenodd"/><path stroke="#2066b8" stroke-width="2.0" stroke-linejoin="round" stroke-linecap="round" d="m894.80695 -4.9553806E-4l63.648315 63.565804" fill-rule="evenodd"/><path fill="#000000" fill-opacity="0.0" d="m906.497 -4.9553806E-4l53.499878 53.499844" fill-rule="evenodd"/><path stroke="#2066b8" stroke-width="2.0" stroke-linejoin="round" stroke-linecap="round" d="m906.497 -4.9553806E-4l53.499878 53.499844" fill-rule="evenodd"/><path fill="#000000" fill-opacity="0.0" d="m918.1089 -4.9553806E-4l41.888 41.80978" fill-rule="evenodd"/><path stroke="#2066b8" stroke-width="2.0" stroke-linejoin="round" stroke-linecap="round" d="m918.1089 -4.9553806E-4l41.888 41.80978" fill-rule="evenodd"/><path fill="#000000" fill-opacity="0.0" d="m929.79895 -4.9553806E-4l30.197937 30.202225" fill-rule="evenodd"/><path stroke="#2066b8" stroke-width="2.0" stroke-linejoin="round" stroke-linecap="round" d="m929.79895 -4.9553806E-4l30.197937 30.202225" fill-rule="evenodd"/><path fill="#000000" fill-opacity="0.0" d="m941.489 -4.9553806E-4l18.507874 18.50782" fill-rule="evenodd"/><path stroke="#2066b8" stroke-width="2.0" stroke-linejoin="round" stroke-linecap="round" d="m941.489 -4.9553806E-4l18.507874 18.50782" fill-rule="evenodd"/><path fill="#000000" fill-opacity="0.0" d="m953.0966 -4.9553806E-4l6.9002686 6.8177557" fill-rule="evenodd"/><path stroke="#2066b8" stroke-width="2.0" stroke-linejoin="round" stroke-linecap="round" d="m953.0966 -4.9553806E-4l6.9002686 6.8177557" fill-rule="evenodd"/><path fill="#000000" fill-opacity="0.0" d="m813.5454 0.32519343l63.240112 63.240112" fill-rule="evenodd"/><path stroke="#2066b8" stroke-width="2.0" stroke-linejoin="round" stroke-linecap="round" d="m813.5454 0.32519343l63.240112 63.240112" fill-rule="evenodd"/><path fill="#000000" fill-opacity="0.0" d="m813.5454 12.015257l51.632507 51.55005" fill-rule="evenodd"/><path stroke="#2066b8" stroke-width="2.0" stroke-linejoin="round" stroke-linecap="round" d="m813.5454 12.015257l51.632507 51.55005" fill-rule="evenodd"/><path fill="#000000" fill-opacity="0.0" d="m813.5454 23.70532l39.942444 39.859985" fill-rule="evenodd"/><path stroke="#2066b8" stroke-width="2.0" stroke-linejoin="round" stroke-linecap="round" d="m813.5454 23.70532l39.942444 39.859985" fill-rule="evenodd"/><path fill="#000000" fill-opacity="0.0" d="m813.5454 35.312874l28.25238 28.252434" fill-rule="evenodd"/><path stroke="#2066b8" stroke-width="2.0" stroke-linejoin="round" stroke-linecap="round" d="m813.5454 35.312874l28.25238 28.252434" fill-rule="evenodd"/><path fill="#000000" fill-opacity="0.0" d="m813.5454 47.002937l16.640503 16.56237" fill-rule="evenodd"/><path stroke="#2066b8" stroke-width="2.0" stroke-linejoin="round" stroke-linecap="round" d="m813.5454 47.002937l16.640503 16.56237" fill-rule="evenodd"/><path fill="#000000" fill-opacity="0.0" d="m818.49585 63.565308l-4.9504395 -4.950474" fill-rule="evenodd"/><path stroke="#2066b8" stroke-width="2.0" stroke-linejoin="round" stroke-linecap="round" d="m818.49585 63.565308l-4.9504395 -4.950474" fill-rule="evenodd"/><path fill="#000000" fill-opacity="0.0" d="m0.020217324 4.895312l4.888532 -4.888532" fill-rule="evenodd"/><path stroke="#2066b8" stroke-width="2.0" stroke-linejoin="round" stroke-linecap="round" d="m0.020217324 4.895312l4.888532 -4.888532" fill-rule="evenodd"/><path fill="#000000" fill-opacity="0.0" d="m17.82085 0.0067795278l-17.800632 17.800634" fill-rule="evenodd"/><path stroke="#2066b8" stroke-width="2.0" stroke-linejoin="round" stroke-linecap="round" d="m17.82085 0.0067795278l-17.800632 17.800634" fill-rule="evenodd"/><path fill="#000000" fill-opacity="0.0" d="m30.73704 0.0067795278l-30.716822 30.716824" fill-rule="evenodd"/><path stroke="#2066b8" stroke-width="2.0" stroke-linejoin="round" stroke-linecap="round" d="m30.73704 0.0067795278l-30.716822 30.716824" fill-rule="evenodd"/><path fill="#000000" fill-opacity="0.0" d="m43.649143 0.0067795278l-43.628925 43.628925" fill-rule="evenodd"/><path stroke="#2066b8" stroke-width="2.0" stroke-linejoin="round" stroke-linecap="round" d="m43.649143 0.0067795278l-43.628925 43.628925" fill-rule="evenodd"/><path fill="#000000" fill-opacity="0.0" d="m56.181114 0.4645685l-55.70311 55.70311" fill-rule="evenodd"/><path stroke="#2066b8" stroke-width="2.0" stroke-linejoin="round" stroke-linecap="round" d="m56.181114 0.4645685l-55.70311 55.70311" fill-rule="evenodd"/><path fill="#000000" fill-opacity="0.0" d="m56.181114 13.37667l-42.791008 42.791008" fill-rule="evenodd"/><path stroke="#2066b8" stroke-width="2.0" stroke-linejoin="round" stroke-linecap="round" d="m56.181114 13.37667l-42.791008 42.791008" fill-rule="evenodd"/><path fill="#000000" fill-opacity="0.0" d="m56.181114 26.292858l-29.874817 29.87482" fill-rule="evenodd"/><path stroke="#2066b8" stroke-width="2.0" stroke-linejoin="round" stroke-linecap="round" d="m56.181114 26.292858l-29.874817 29.87482" fill-rule="evenodd"/><path fill="#000000" fill-opacity="0.0" d="m56.181114 39.20496l-16.962715 16.962719" fill-rule="evenodd"/><path stroke="#2066b8" stroke-width="2.0" stroke-linejoin="round" stroke-linecap="round" d="m56.181114 39.20496l-16.962715 16.962719" fill-rule="evenodd"/><path fill="#000000" fill-opacity="0.0" d="m56.181114 52.19472l-3.9729538 3.9729576" fill-rule="evenodd"/><path stroke="#2066b8" stroke-width="2.0" stroke-linejoin="round" stroke-linecap="round" d="m56.181114 52.19472l-3.9729538 3.9729576" fill-rule="evenodd"/><path fill="#000000" d="m911.4515 84.408775l0.15075684 0.5952759l0.29364014 0.29367065l0.30163574 0.44447327l0.44439697 0.30160522l0.29370117 0.29367065l0.59521484 0.15080261l0.444458 0l0.59521484 0l0.444458 -0.15080261l0.444458 -0.29367065l0.29364014 -0.30160522l0.3015747 -0.44447327l0.29364014 -0.29367065l0.15081787 -0.5952759l0 -1.0397491l-0.15081787 -0.44447327l-0.29364014 -0.44447327l-0.3015747 -0.30160522l-0.29364014 -0.29366302l-0.444458 -0.29367065l-0.444458 -0.15080261l-0.59521484 0l-0.444458 0l-0.59521484 0.15080261l-0.29370117 0.29367065l-0.44439697 0.29366302l-0.30163574 0.30160522l-0.29364014 0.44447327l-0.15075684 0.44447327z" fill-rule="evenodd"/><path fill="#000000" d="m927.9197 83.9643l0.15075684 0.44447327l0.15081787 0.5952759l0.14282227 0.29367065l0.30163574 0.44447327l0.44439697 0.30160522l0.444458 0.29367065l0.444458 0.15080261l0.444458 0l0.59521484 0l0.444458 -0.15080261l0.444458 -0.29367065l0.44439697 -0.30160522l0.29364014 -0.44447327l0.15081787 -0.29367065l0.15081787 -0.5952759l0.14282227 -0.44447327l-0.14282227 -0.5952759l-0.15081787 -0.44447327l-0.15081787 -0.44447327l-0.29364014 -0.30160522l-0.44439697 -0.29366302l-0.444458 -0.29367065l-0.444458 -0.15080261l-0.59521484 0l-0.444458 0l-0.444458 0.15080261l-0.444458 0.29367065l-0.44439697 0.29366302l-0.30163574 0.30160522l-0.14282227 0.44447327l-0.15081787 0.44447327l-0.15075684 0.5952759z" fill-rule="evenodd"/><path fill="#000000" d="m911.4515 105.7752l0.15075684 0.5952759l0.29364014 0.44447327l0.30163574 0.29367065l0.44439697 0.30160522l0.29370117 0.29367065l0.59521484 0.15080261l0.444458 0l0.59521484 0l0.444458 -0.15080261l0.444458 -0.29367065l0.29364014 -0.30160522l0.3015747 -0.29367065l0.29364014 -0.44447327l0.15081787 -0.5952759l0 -0.88894653l-0.15081787 -0.5952759l-0.29364014 -0.44446564l-0.3015747 -0.30161285l-0.29364014 -0.29366302l-0.444458 -0.29367065l-0.444458 -0.15080261l-0.59521484 0l-0.444458 0l-0.59521484 0.15080261l-0.29370117 0.29367065l-0.44439697 0.29366302l-0.30163574 0.30161285l-0.29364014 0.44446564l-0.15075684 0.5952759z" fill-rule="evenodd"/><path fill="#000000" d="m927.9197 105.33073l0.15075684 0.44447327l0.15081787 0.5952759l0.14282227 0.44447327l0.30163574 0.29367065l0.44439697 0.30160522l0.444458 0.29367065l0.444458 0.15080261l0.444458 0l0.59521484 0l0.444458 -0.15080261l0.444458 -0.29367065l0.44439697 -0.30160522l0.29364014 -0.29367065l0.15081787 -0.44447327l0.15081787 -0.5952759l0.14282227 -0.44447327l-0.14282227 -0.44447327l-0.15081787 -0.5952759l-0.15081787 -0.44446564l-0.29364014 -0.30161285l-0.44439697 -0.29366302l-0.444458 -0.29367065l-0.444458 -0.15080261l-0.59521484 0l-0.444458 0l-0.444458 0.15080261l-0.444458 0.29367065l-0.44439697 0.29366302l-0.30163574 0.30161285l-0.14282227 0.44446564l-0.15081787 0.5952759l-0.15075684 0.44447327z" fill-rule="evenodd"/><path fill="#000000" d="m911.4515 127.29243l0.15075684 0.44447327l0.29364014 0.4444809l0.30163574 0.2936554l0.44439697 0.30162048l0.29370117 0.2936554l0.59521484 0.15080261l0.444458 0l0.59521484 0l0.444458 -0.15080261l0.444458 -0.2936554l0.29364014 -0.30162048l0.3015747 -0.2936554l0.29364014 -0.4444809l0.15081787 -0.44447327l0 -1.0397491l-0.15081787 -0.59526825l-0.29364014 -0.29367065l-0.3015747 -0.44447327l-0.29364014 -0.30160522l-0.444458 -0.29367065l-0.444458 -0.15080261l-0.59521484 0l-0.444458 0l-0.59521484 0.15080261l-0.29370117 0.29367065l-0.44439697 0.30160522l-0.30163574 0.44447327l-0.29364014 0.29367065l-0.15075684 0.59526825z" fill-rule="evenodd"/><path fill="#000000" d="m927.9197 126.69715l0.15075684 0.5952759l0.15081787 0.44447327l0.14282227 0.4444809l0.30163574 0.2936554l0.44439697 0.30162048l0.444458 0.2936554l0.444458 0.15080261l0.444458 0l0.59521484 0l0.444458 -0.15080261l0.444458 -0.2936554l0.44439697 -0.30162048l0.29364014 -0.2936554l0.15081787 -0.4444809l0.15081787 -0.44447327l0.14282227 -0.5952759l-0.14282227 -0.44447327l-0.15081787 -0.59526825l-0.15081787 -0.29367065l-0.29364014 -0.44447327l-0.44439697 -0.30160522l-0.444458 -0.29367065l-0.444458 -0.15080261l-0.59521484 0l-0.444458 0l-0.444458 0.15080261l-0.444458 0.29367065l-0.44439697 0.30160522l-0.30163574 0.44447327l-0.14282227 0.29367065l-0.15081787 0.59526825l-0.15075684 0.44447327z" fill-rule="evenodd"/><path fill="#000000" d="m911.4515 148.65886l0.15075684 0.44447327l0.29364014 0.44447327l0.30163574 0.29367065l0.44439697 0.30160522l0.29370117 0.2936554l0.59521484 0.15081787l0.444458 0l0.59521484 0l0.444458 -0.15081787l0.444458 -0.2936554l0.29364014 -0.30160522l0.3015747 -0.29367065l0.29364014 -0.44447327l0.15081787 -0.44447327l0 -1.0397491l-0.15081787 -0.44447327l-0.29364014 -0.44447327l-0.3015747 -0.44447327l-0.29364014 -0.30160522l-0.444458 -0.29367065l-0.444458 -0.15080261l-0.59521484 0l-0.444458 0l-0.59521484 0.15080261l-0.29370117 0.29367065l-0.44439697 0.30160522l-0.30163574 0.44447327l-0.29364014 0.44447327l-0.15075684 0.44447327z" fill-rule="evenodd"/><path fill="#000000" d="m927.9197 148.06358l0.15075684 0.5952759l0.15081787 0.44447327l0.14282227 0.44447327l0.30163574 0.29367065l0.44439697 0.30160522l0.444458 0.2936554l0.444458 0.15081787l0.444458 0l0.59521484 0l0.444458 -0.15081787l0.444458 -0.2936554l0.44439697 -0.30160522l0.29364014 -0.29367065l0.15081787 -0.44447327l0.15081787 -0.44447327l0.14282227 -0.5952759l-0.14282227 -0.44447327l-0.15081787 -0.44447327l-0.15081787 -0.44447327l-0.29364014 -0.44447327l-0.44439697 -0.30160522l-0.444458 -0.29367065l-0.444458 -0.15080261l-0.59521484 0l-0.444458 0l-0.444458 0.15080261l-0.444458 0.29367065l-0.44439697 0.30160522l-0.30163574 0.44447327l-0.14282227 0.44447327l-0.15081787 0.44447327l-0.15075684 0.44447327z" fill-rule="evenodd"/><path fill="#000000" d="m911.4515 170.02528l0.15075684 0.44447327l0.29364014 0.44447327l0.30163574 0.44447327l0.44439697 0.29367065l0.29370117 0.15080261l0.59521484 0.15080261l0.444458 0.14285278l0.59521484 -0.14285278l0.444458 -0.15080261l0.444458 -0.15080261l0.29364014 -0.29367065l0.3015747 -0.44447327l0.29364014 -0.44447327l0.15081787 -0.44447327l0 -1.0397491l-0.15081787 -0.44447327l-0.29364014 -0.44447327l-0.3015747 -0.44447327l-0.29364014 -0.30160522l-0.444458 -0.14286804l-0.444458 -0.15080261l-0.59521484 -0.15080261l-0.444458 0.15080261l-0.59521484 0.15080261l-0.29370117 0.14286804l-0.44439697 0.30160522l-0.30163574 0.44447327l-0.29364014 0.44447327l-0.15075684 0.44447327z" fill-rule="evenodd"/><path fill="#000000" d="m927.9197 169.43001l0.15075684 0.5952759l0.15081787 0.44447327l0.14282227 0.44447327l0.30163574 0.44447327l0.44439697 0.29367065l0.444458 0.15080261l0.444458 0.15080261l0.444458 0.14285278l0.59521484 -0.14285278l0.444458 -0.15080261l0.444458 -0.15080261l0.44439697 -0.29367065l0.29364014 -0.44447327l0.15081787 -0.44447327l0.15081787 -0.44447327l0.14282227 -0.5952759l-0.14282227 -0.44447327l-0.15081787 -0.44447327l-0.15081787 -0.44447327l-0.29364014 -0.44447327l-0.44439697 -0.30160522l-0.444458 -0.14286804l-0.444458 -0.15080261l-0.59521484 -0.15080261l-0.444458 0.15080261l-0.444458 0.15080261l-0.444458 0.14286804l-0.44439697 0.30160522l-0.30163574 0.44447327l-0.14282227 0.44447327l-0.15081787 0.44447327l-0.15075684 0.44447327z" fill-rule="evenodd"/><path fill="#000000" d="m911.4515 191.39171l0.15075684 0.44447327l0.29364014 0.44447327l0.30163574 0.44447327l0.44439697 0.29367065l0.29370117 0.15080261l0.59521484 0.15080261l0.444458 0.14285278l0.59521484 -0.14285278l0.444458 -0.15080261l0.444458 -0.15080261l0.29364014 -0.29367065l0.3015747 -0.44447327l0.29364014 -0.44447327l0.15081787 -0.44447327l0 -1.0397491l-0.15081787 -0.44447327l-0.29364014 -0.44447327l-0.3015747 -0.44447327l-0.29364014 -0.30160522l-0.444458 -0.14286804l-0.444458 -0.15080261l-0.59521484 -0.15080261l-0.444458 0.15080261l-0.59521484 0.15080261l-0.29370117 0.14286804l-0.44439697 0.30160522l-0.30163574 0.44447327l-0.29364014 0.44447327l-0.15075684 0.44447327z" fill-rule="evenodd"/><path fill="#000000" d="m927.9197 190.94724l0.15075684 0.44447327l0.15081787 0.44447327l0.14282227 0.44447327l0.30163574 0.44447327l0.44439697 0.29367065l0.444458 0.15080261l0.444458 0.15080261l0.444458 0.14285278l0.59521484 -0.14285278l0.444458 -0.15080261l0.444458 -0.15080261l0.44439697 -0.29367065l0.29364014 -0.44447327l0.15081787 -0.44447327l0.15081787 -0.44447327l0.14282227 -0.44447327l-0.14282227 -0.5952759l-0.15081787 -0.44447327l-0.15081787 -0.44447327l-0.29364014 -0.44447327l-0.44439697 -0.30160522l-0.444458 -0.14286804l-0.444458 -0.15080261l-0.59521484 -0.15080261l-0.444458 0.15080261l-0.444458 0.15080261l-0.444458 0.14286804l-0.44439697 0.30160522l-0.30163574 0.44447327l-0.14282227 0.44447327l-0.15081787 0.44447327l-0.15075684 0.5952759z" fill-rule="evenodd"/><path fill="#000000" d="m25.874031 332.48752l0.15079308 0.5952759l0.29364967 0.29367065l0.30158615 0.444458l0.44444275 0.30160522l0.29364967 0.29367065l0.59523773 0.15081787l0.44444275 0l0.5952358 0l0.44444275 -0.15081787l0.44444275 -0.29367065l0.29364967 -0.30160522l0.30158806 -0.444458l0.29364967 -0.29367065l0.15079308 -0.5952759l0 -1.0397644l-0.15079308 -0.444458l-0.29364967 -0.444458l-0.30158806 -0.30163574l-0.29364967 -0.29364014l-0.44444275 -0.29367065l-0.44444275 -0.15081787l-0.5952358 0l-0.44444275 0l-0.59523773 0.15081787l-0.29364967 0.29367065l-0.44444275 0.29364014l-0.30158615 0.30163574l-0.29364967 0.444458l-0.15079308 0.444458z" fill-rule="evenodd"/><path fill="#000000" d="m42.34223 332.04303l0.15079498 0.44448853l0.15079117 0.5952759l0.1428566 0.29367065l0.30158615 0.444458l0.44444656 0.30160522l0.44444275 0.29367065l0.44444275 0.15081787l0.44444275 0l0.5952339 0l0.44444275 -0.15081787l0.44444656 -0.29367065l0.44444275 -0.30160522l0.29364777 -0.444458l0.15079498 -0.29367065l0.15079117 -0.5952759l0.1428566 -0.44448853l-0.1428566 -0.5952759l-0.15079117 -0.444458l-0.15079498 -0.444458l-0.29364777 -0.30163574l-0.44444275 -0.29364014l-0.44444656 -0.29367065l-0.44444275 -0.15081787l-0.5952339 0l-0.44444275 0l-0.44444275 0.15081787l-0.44444275 0.29367065l-0.44444656 0.29364014l-0.30158615 0.30163574l-0.1428566 0.444458l-0.15079117 0.444458l-0.15079498 0.5952759z" fill-rule="evenodd"/><path fill="#000000" d="m25.874031 353.85394l0.15079308 0.5952759l0.29364967 0.444458l0.30158615 0.29367065l0.44444275 0.30160522l0.29364967 0.29367065l0.59523773 0.15081787l0.44444275 0l0.5952358 0l0.44444275 -0.15081787l0.44444275 -0.29367065l0.29364967 -0.30160522l0.30158806 -0.29367065l0.29364967 -0.444458l0.15079308 -0.5952759l0 -0.88894653l-0.15079308 -0.5952759l-0.29364967 -0.444458l-0.30158806 -0.30160522l-0.29364967 -0.29367065l-0.44444275 -0.29367065l-0.44444275 -0.15081787l-0.5952358 0l-0.44444275 0l-0.59523773 0.15081787l-0.29364967 0.29367065l-0.44444275 0.29367065l-0.30158615 0.30160522l-0.29364967 0.444458l-0.15079308 0.5952759z" fill-rule="evenodd"/><path fill="#000000" d="m42.34223 353.40945l0.15079498 0.44448853l0.15079117 0.5952759l0.1428566 0.444458l0.30158615 0.29367065l0.44444656 0.30160522l0.44444275 0.29367065l0.44444275 0.15081787l0.44444275 0l0.5952339 0l0.44444275 -0.15081787l0.44444656 -0.29367065l0.44444275 -0.30160522l0.29364777 -0.29367065l0.15079498 -0.444458l0.15079117 -0.5952759l0.1428566 -0.44448853l-0.1428566 -0.444458l-0.15079117 -0.5952759l-0.15079498 -0.444458l-0.29364777 -0.30160522l-0.44444275 -0.29367065l-0.44444656 -0.29367065l-0.44444275 -0.15081787l-0.5952339 0l-0.44444275 0l-0.44444275 0.15081787l-0.44444275 0.29367065l-0.44444656 0.29367065l-0.30158615 0.30160522l-0.1428566 0.444458l-0.15079117 0.5952759l-0.15079498 0.444458z" fill-rule="evenodd"/><path fill="#000000" d="m25.874031 375.37115l0.15079308 0.44448853l0.29364967 0.444458l0.30158615 0.29367065l0.44444275 0.30160522l0.29364967 0.29367065l0.59523773 0.15081787l0.44444275 0l0.5952358 0l0.44444275 -0.15081787l0.44444275 -0.29367065l0.29364967 -0.30160522l0.30158806 -0.29367065l0.29364967 -0.444458l0.15079308 -0.44448853l0 -1.0397339l-0.15079308 -0.5952759l-0.29364967 -0.29367065l-0.30158806 -0.444458l-0.29364967 -0.30160522l-0.44444275 -0.29367065l-0.44444275 -0.15081787l-0.5952358 0l-0.44444275 0l-0.59523773 0.15081787l-0.29364967 0.29367065l-0.44444275 0.30160522l-0.30158615 0.444458l-0.29364967 0.29367065l-0.15079308 0.5952759z" fill-rule="evenodd"/><path fill="#000000" d="m42.34223 374.7759l0.15079498 0.59524536l0.15079117 0.44448853l0.1428566 0.444458l0.30158615 0.29367065l0.44444656 0.30160522l0.44444275 0.29367065l0.44444275 0.15081787l0.44444275 0l0.5952339 0l0.44444275 -0.15081787l0.44444656 -0.29367065l0.44444275 -0.30160522l0.29364777 -0.29367065l0.15079498 -0.444458l0.15079117 -0.44448853l0.1428566 -0.59524536l-0.1428566 -0.44448853l-0.15079117 -0.5952759l-0.15079498 -0.29367065l-0.29364777 -0.444458l-0.44444275 -0.30160522l-0.44444656 -0.29367065l-0.44444275 -0.15081787l-0.5952339 0l-0.44444275 0l-0.44444275 0.15081787l-0.44444275 0.29367065l-0.44444656 0.30160522l-0.30158615 0.444458l-0.1428566 0.29367065l-0.15079117 0.5952759l-0.15079498 0.44448853z" fill-rule="evenodd"/><path fill="#000000" d="m25.874031 396.7376l0.15079308 0.444458l0.29364967 0.444458l0.30158615 0.29367065l0.44444275 0.30160522l0.29364967 0.29367065l0.59523773 0.15081787l0.44444275 0l0.5952358 0l0.44444275 -0.15081787l0.44444275 -0.29367065l0.29364967 -0.30160522l0.30158806 -0.29367065l0.29364967 -0.444458l0.15079308 -0.444458l0 -1.0397644l-0.15079308 -0.444458l-0.29364967 -0.44448853l-0.30158806 -0.444458l-0.29364967 -0.30160522l-0.44444275 -0.29367065l-0.44444275 -0.15081787l-0.5952358 0l-0.44444275 0l-0.59523773 0.15081787l-0.29364967 0.29367065l-0.44444275 0.30160522l-0.30158615 0.444458l-0.29364967 0.44448853l-0.15079308 0.444458z" fill-rule="evenodd"/><path fill="#000000" d="m42.34223 396.14233l0.15079498 0.5952759l0.15079117 0.444458l0.1428566 0.444458l0.30158615 0.29367065l0.44444656 0.30160522l0.44444275 0.29367065l0.44444275 0.15081787l0.44444275 0l0.5952339 0l0.44444275 -0.15081787l0.44444656 -0.29367065l0.44444275 -0.30160522l0.29364777 -0.29367065l0.15079498 -0.444458l0.15079117 -0.444458l0.1428566 -0.5952759l-0.1428566 -0.44448853l-0.15079117 -0.444458l-0.15079498 -0.44448853l-0.29364777 -0.444458l-0.44444275 -0.30160522l-0.44444656 -0.29367065l-0.44444275 -0.15081787l-0.5952339 0l-0.44444275 0l-0.44444275 0.15081787l-0.44444275 0.29367065l-0.44444656 0.30160522l-0.30158615 0.444458l-0.1428566 0.44448853l-0.15079117 0.444458l-0.15079498 0.44448853z" fill-rule="evenodd"/><path fill="#000000" d="m25.874031 418.10403l0.15079308 0.444458l0.29364967 0.444458l0.30158615 0.44448853l0.44444275 0.29367065l0.29364967 0.15078735l0.59523773 0.15081787l0.44444275 0.14285278l0.5952358 -0.14285278l0.44444275 -0.15081787l0.44444275 -0.15078735l0.29364967 -0.29367065l0.30158806 -0.44448853l0.29364967 -0.444458l0.15079308 -0.444458l0 -1.0397644l-0.15079308 -0.444458l-0.29364967 -0.44448853l-0.30158806 -0.444458l-0.29364967 -0.30160522l-0.44444275 -0.1428833l-0.44444275 -0.15078735l-0.5952358 -0.15081787l-0.44444275 0.15081787l-0.59523773 0.15078735l-0.29364967 0.1428833l-0.44444275 0.30160522l-0.30158615 0.444458l-0.29364967 0.44448853l-0.15079308 0.444458z" fill-rule="evenodd"/><path fill="#000000" d="m42.34223 417.50876l0.15079498 0.5952759l0.15079117 0.444458l0.1428566 0.444458l0.30158615 0.44448853l0.44444656 0.29367065l0.44444275 0.15078735l0.44444275 0.15081787l0.44444275 0.14285278l0.5952339 -0.14285278l0.44444275 -0.15081787l0.44444656 -0.15078735l0.44444275 -0.29367065l0.29364777 -0.44448853l0.15079498 -0.444458l0.15079117 -0.444458l0.1428566 -0.5952759l-0.1428566 -0.44448853l-0.15079117 -0.444458l-0.15079498 -0.44448853l-0.29364777 -0.444458l-0.44444275 -0.30160522l-0.44444656 -0.1428833l-0.44444275 -0.15078735l-0.5952339 -0.15081787l-0.44444275 0.15081787l-0.44444275 0.15078735l-0.44444275 0.1428833l-0.44444656 0.30160522l-0.30158615 0.444458l-0.1428566 0.44448853l-0.15079117 0.444458l-0.15079498 0.44448853z" fill-rule="evenodd"/><path fill="#000000" d="m25.874031 439.47046l0.15079308 0.444458l0.29364967 0.44448853l0.30158615 0.444458l0.44444275 0.29367065l0.29364967 0.15078735l0.59523773 0.15081787l0.44444275 0.14285278l0.5952358 -0.14285278l0.44444275 -0.15081787l0.44444275 -0.15078735l0.29364967 -0.29367065l0.30158806 -0.444458l0.29364967 -0.44448853l0.15079308 -0.444458l0 -1.0397644l-0.15079308 -0.444458l-0.29364967 -0.44448853l-0.30158806 -0.444458l-0.29364967 -0.30160522l-0.44444275 -0.1428833l-0.44444275 -0.15078735l-0.5952358 -0.15081787l-0.44444275 0.15081787l-0.59523773 0.15078735l-0.29364967 0.1428833l-0.44444275 0.30160522l-0.30158615 0.444458l-0.29364967 0.44448853l-0.15079308 0.444458z" fill-rule="evenodd"/><path fill="#000000" d="m42.34223 439.02597l0.15079498 0.44448853l0.15079117 0.444458l0.1428566 0.44448853l0.30158615 0.444458l0.44444656 0.29367065l0.44444275 0.15078735l0.44444275 0.15081787l0.44444275 0.14285278l0.5952339 -0.14285278l0.44444275 -0.15081787l0.44444656 -0.15078735l0.44444275 -0.29367065l0.29364777 -0.444458l0.15079498 -0.44448853l0.15079117 -0.444458l0.1428566 -0.44448853l-0.1428566 -0.5952759l-0.15079117 -0.444458l-0.15079498 -0.44448853l-0.29364777 -0.444458l-0.44444275 -0.30160522l-0.44444656 -0.1428833l-0.44444275 -0.15078735l-0.5952339 -0.15081787l-0.44444275 0.15081787l-0.44444275 0.15078735l-0.44444275 0.1428833l-0.44444656 0.30160522l-0.30158615 0.444458l-0.1428566 0.44448853l-0.15079117 0.444458l-0.15079498 0.5952759z" fill-rule="evenodd"/><path fill="#2066b8" d="m0 449.91864l960.0 0l0 90.078735l-960.0 0z" fill-rule="evenodd"/><path fill="#ffffff" d="m439.0187 501.72766l-0.121276855 -0.35739136l-0.2361145 -0.35739136l-0.23614502 -0.35739136l-0.24249268 -0.24249268l-0.35739136 -0.23614502l-0.4786377 -0.12124634l-0.35739136 0l-0.4786377 0l-0.35739136 0.12124634l-0.35739136 0.23614502l-0.2361145 0.24249268l-0.2425232 0.35739136l-0.23614502 0.35739136l-0.12124634 0.35739136l0 0.83602905l0.12124634 0.35739136l0.23614502 0.35739136l0.2425232 0.2361145l0.2361145 0.2425232l0.35739136 0.2361145l0.35739136 0.12124634l0.4786377 0l0.35739136 0l0.4786377 -0.12124634l0.35739136 -0.2361145l0.24249268 -0.2425232l0.23614502 -0.2361145l0.2361145 -0.35739136l0.121276855 -0.35739136z" fill-rule="evenodd"/><path fill="#ffffff" d="m456.19873 501.72766l-0.12124634 -0.35739136l-0.2361145 -0.35739136l-0.23614502 -0.35739136l-0.2425232 -0.24249268l-0.35736084 -0.23614502l-0.35739136 -0.12124634l-0.4786377 0l-0.35739136 0l-0.4786377 0.12124634l-0.23614502 0.23614502l-0.35739136 0.24249268l-0.2361145 0.35739136l-0.2425232 0.35739136l-0.12124634 0.35739136l0 0.83602905l0.12124634 0.35739136l0.2425232 0.35739136l0.2361145 0.2361145l0.35739136 0.2425232l0.23614502 0.2361145l0.4786377 0.12124634l0.35739136 0l0.4786377 0l0.35739136 -0.12124634l0.35736084 -0.2361145l0.2425232 -0.2425232l0.23614502 -0.2361145l0.2361145 -0.35739136l0.12124634 -0.35739136z" fill-rule="evenodd"/><path fill="#ffffff" d="m473.37878 501.72766l-0.12124634 -0.35739136l-0.23614502 -0.35739136l-0.2361145 -0.35739136l-0.2425232 -0.24249268l-0.35739136 -0.23614502l-0.35736084 -0.12124634l-0.4786682 0l-0.35736084 0l-0.35739136 0.12124634l-0.35739136 0.23614502l-0.35739136 0.24249268l-0.2361145 0.35739136l-0.2425232 0.35739136l-0.114868164 0.35739136l0 0.83602905l0.114868164 0.35739136l0.2425232 0.35739136l0.2361145 0.2361145l0.35739136 0.2425232l0.35739136 0.2361145l0.35739136 0.12124634l0.35736084 0l0.4786682 0l0.35736084 -0.12124634l0.35739136 -0.2361145l0.2425232 -0.2425232l0.2361145 -0.2361145l0.23614502 -0.35739136l0.12124634 -0.35739136z" fill-rule="evenodd"/><path fill="#ffffff" d="m490.68008 502.08505l-0.12124634 -0.35739136l-0.12124634 -0.35739136l-0.11489868 -0.35739136l-0.24249268 -0.35739136l-0.35739136 -0.24249268l-0.35739136 -0.23614502l-0.35739136 -0.12124634l-0.4786377 0l-0.35739136 0l-0.35736084 0.12124634l-0.35739136 0.23614502l-0.35739136 0.24249268l-0.23614502 0.35739136l-0.12124634 0.35739136l-0.12124634 0.35739136l-0.114868164 0.35739136l0.114868164 0.4786377l0.12124634 0.35739136l0.12124634 0.35739136l0.23614502 0.2361145l0.35739136 0.2425232l0.35739136 0.2361145l0.35736084 0.12124634l0.35739136 0l0.4786377 0l0.35739136 -0.12124634l0.35739136 -0.2361145l0.35739136 -0.2425232l0.24249268 -0.2361145l0.11489868 -0.35739136l0.12124634 -0.35739136l0.12124634 -0.4786377z" fill-rule="evenodd"/><path fill="#ffffff" d="m507.86014 502.08505l-0.12124634 -0.35739136l-0.114868164 -0.35739136l-0.121276855 -0.35739136l-0.24249268 -0.35739136l-0.35739136 -0.24249268l-0.35739136 -0.23614502l-0.35739136 -0.12124634l-0.35739136 0l-0.4786377 0l-0.35739136 0.12124634l-0.35736084 0.23614502l-0.35739136 0.24249268l-0.23614502 0.35739136l-0.12124634 0.35739136l-0.12124634 0.35739136l-0.11489868 0.35739136l0.11489868 0.4786377l0.12124634 0.35739136l0.12124634 0.35739136l0.23614502 0.2361145l0.35739136 0.2425232l0.35736084 0.2361145l0.35739136 0.12124634l0.4786377 0l0.35739136 0l0.35739136 -0.12124634l0.35739136 -0.2361145l0.35739136 -0.2425232l0.24249268 -0.2361145l0.121276855 -0.35739136l0.114868164 -0.35739136l0.12124634 -0.4786377z" fill-rule="evenodd"/><path fill="#ffffff" d="m525.04016 502.08505l-0.12121582 -0.35739136l-0.114868164 -0.35739136l-0.121276855 -0.35739136l-0.23614502 -0.35739136l-0.36376953 -0.24249268l-0.35736084 -0.23614502l-0.35742188 -0.12124634l-0.35736084 0l-0.4786377 0l-0.35736084 0.12124634l-0.35742188 0.23614502l-0.23614502 0.24249268l-0.35736084 0.35739136l-0.121276855 0.35739136l-0.12121582 0.35739136l0 0.83602905l0.12121582 0.35739136l0.121276855 0.35739136l0.35736084 0.2361145l0.23614502 0.2425232l0.35742188 0.2361145l0.35736084 0.12124634l0.4786377 0l0.35736084 0l0.35742188 -0.12124634l0.35736084 -0.2361145l0.36376953 -0.2425232l0.23614502 -0.2361145l0.121276855 -0.35739136l0.114868164 -0.35739136l0.12121582 -0.4786377z" fill-rule="evenodd"/><path fill="#ffffff" d="m439.0187 514.9701l-0.121276855 -0.35742188l-0.2361145 -0.35736084l-0.23614502 -0.35736084l-0.24249268 -0.24255371l-0.35739136 -0.114868164l-0.4786377 -0.12121582l-0.35739136 -0.121276855l-0.4786377 0.121276855l-0.35739136 0.12121582l-0.35739136 0.114868164l-0.2361145 0.24255371l-0.2425232 0.35736084l-0.23614502 0.35736084l-0.12124634 0.35742188l0 0.83599854l0.12124634 0.35742188l0.23614502 0.35736084l0.2425232 0.35742188l0.2361145 0.24249268l0.35739136 0.114868164l0.35739136 0.121276855l0.4786377 0.12121582l0.35739136 -0.12121582l0.4786377 -0.121276855l0.35739136 -0.114868164l0.24249268 -0.24249268l0.23614502 -0.35742188l0.2361145 -0.35736084l0.121276855 -0.35742188z" fill-rule="evenodd"/><path fill="#ffffff" d="m456.19873 514.9701l-0.12124634 -0.35742188l-0.2361145 -0.35736084l-0.23614502 -0.35736084l-0.2425232 -0.24255371l-0.35736084 -0.114868164l-0.35739136 -0.12121582l-0.4786377 -0.121276855l-0.35739136 0.121276855l-0.4786377 0.12121582l-0.23614502 0.114868164l-0.35739136 0.24255371l-0.2361145 0.35736084l-0.2425232 0.35736084l-0.12124634 0.35742188l0 0.83599854l0.12124634 0.35742188l0.2425232 0.35736084l0.2361145 0.35742188l0.35739136 0.24249268l0.23614502 0.114868164l0.4786377 0.121276855l0.35739136 0.12121582l0.4786377 -0.12121582l0.35739136 -0.121276855l0.35736084 -0.114868164l0.2425232 -0.24249268l0.23614502 -0.35742188l0.2361145 -0.35736084l0.12124634 -0.35742188z" fill-rule="evenodd"/><path fill="#ffffff" d="m473.37878 514.9701l-0.12124634 -0.35742188l-0.23614502 -0.35736084l-0.2361145 -0.35736084l-0.2425232 -0.24255371l-0.35739136 -0.114868164l-0.35736084 -0.12121582l-0.4786682 -0.121276855l-0.35736084 0.121276855l-0.35739136 0.12121582l-0.35739136 0.114868164l-0.35739136 0.24255371l-0.2361145 0.35736084l-0.2425232 0.35736084l-0.114868164 0.35742188l0 0.83599854l0.114868164 0.35742188l0.2425232 0.35736084l0.2361145 0.35742188l0.35739136 0.24249268l0.35739136 0.114868164l0.35739136 0.121276855l0.35736084 0.12121582l0.4786682 -0.12121582l0.35736084 -0.121276855l0.35739136 -0.114868164l0.2425232 -0.24249268l0.2361145 -0.35742188l0.23614502 -0.35736084l0.12124634 -0.35742188z" fill-rule="evenodd"/><path fill="#ffffff" d="m490.68008 515.4487l-0.12124634 -0.4786377l-0.12124634 -0.35742188l-0.11489868 -0.35736084l-0.24249268 -0.35736084l-0.35739136 -0.24255371l-0.35739136 -0.114868164l-0.35739136 -0.12121582l-0.4786377 -0.121276855l-0.35739136 0.121276855l-0.35736084 0.12121582l-0.35739136 0.114868164l-0.35739136 0.24255371l-0.23614502 0.35736084l-0.12124634 0.35736084l-0.12124634 0.35742188l-0.114868164 0.4786377l0.114868164 0.35736084l0.12124634 0.35742188l0.12124634 0.35736084l0.23614502 0.35742188l0.35739136 0.24249268l0.35739136 0.114868164l0.35736084 0.121276855l0.35739136 0.12121582l0.4786377 -0.12121582l0.35739136 -0.121276855l0.35739136 -0.114868164l0.35739136 -0.24249268l0.24249268 -0.35742188l0.11489868 -0.35736084l0.12124634 -0.35742188l0.12124634 -0.35736084z" fill-rule="evenodd"/><path fill="#ffffff" d="m507.86014 515.4487l-0.12124634 -0.4786377l-0.114868164 -0.35742188l-0.121276855 -0.35736084l-0.24249268 -0.35736084l-0.35739136 -0.24255371l-0.35739136 -0.114868164l-0.35739136 -0.12121582l-0.35739136 -0.121276855l-0.4786377 0.121276855l-0.35739136 0.12121582l-0.35736084 0.114868164l-0.35739136 0.24255371l-0.23614502 0.35736084l-0.12124634 0.35736084l-0.12124634 0.35742188l-0.11489868 0.4786377l0.11489868 0.35736084l0.12124634 0.35742188l0.12124634 0.35736084l0.23614502 0.35742188l0.35739136 0.24249268l0.35736084 0.114868164l0.35739136 0.121276855l0.4786377 0.12121582l0.35739136 -0.12121582l0.35739136 -0.121276855l0.35739136 -0.114868164l0.35739136 -0.24249268l0.24249268 -0.35742188l0.121276855 -0.35736084l0.114868164 -0.35742188l0.12124634 -0.35736084z" fill-rule="evenodd"/><path fill="#ffffff" d="m525.04016 515.4487l-0.12121582 -0.4786377l-0.114868164 -0.35742188l-0.121276855 -0.35736084l-0.23614502 -0.35736084l-0.36376953 -0.24255371l-0.35736084 -0.114868164l-0.35742188 -0.12121582l-0.35736084 -0.121276855l-0.4786377 0.121276855l-0.35736084 0.12121582l-0.35742188 0.114868164l-0.23614502 0.24255371l-0.35736084 0.35736084l-0.121276855 0.35736084l-0.12121582 0.35742188l0 0.83599854l0.12121582 0.35742188l0.121276855 0.35736084l0.35736084 0.35742188l0.23614502 0.24249268l0.35742188 0.114868164l0.35736084 0.121276855l0.4786377 0.12121582l0.35736084 -0.12121582l0.35742188 -0.121276855l0.35736084 -0.114868164l0.36376953 -0.24249268l0.23614502 -0.35742188l0.121276855 -0.35736084l0.114868164 -0.35742188l0.12121582 -0.35736084z" fill-rule="evenodd"/></g></svg>